solid nori
facet normal 0.00706785287953497 -0.999975022415897 -3.52304756243708e-019
outer loop
vertex 10.1529114365613 30.2337908121089 1.43935519650958e-014
vertex 7.73144443656129 30.2166758121089 4.00000000000001
vertex 7.73144443656129 30.2166758121089 1.49908319650958e-014
endloop
endfacet
facet normal -0.233504773505764 -0.972355655483127 -1.15939878413255e-017
outer loop
vertex 7.73144443656129 30.2166758121089 1.49908319650958e-014
vertex 5.37685943656129 30.7821138121089 4.00000000000001
vertex 5.37685943656129 30.7821138121089 1.54290469650958e-014
endloop
endfacet
facet normal -0.46038499118908 -0.887719358743421 2.53987223871303e-017
outer loop
vertex 5.37685943656129 30.7821138121089 1.54290469650958e-014
vertex 3.22722243656129 31.8969488121089 4.00000000000001
vertex 3.22722243656129 31.8969488121089 1.56825029650958e-014
endloop
endfacet
facet normal -0.660268665100472 -0.751029486695723 3.00213313809244e-017
outer loop
vertex 3.22722243656129 31.8969488121089 1.56825029650958e-014
vertex 1.40858243656129 33.4958088121089 4.00000000000001
vertex 1.40858243656129 33.4958088121089 1.57363329650958e-014
endloop
endfacet
facet normal -0.821437864457079 -0.570298022823325 2.74482325206262e-017
outer loop
vertex 0.0275924365612918 35.4849398121089 4.00000000000001
vertex 0.0275924365612918 35.4849398121089 1.55873799650958e-014
vertex 1.40858243656129 33.4958088121089 1.57363329650958e-014
endloop
endfacet
facet normal -0.934436252884294 -0.356130438597378 0.0
outer loop
vertex -0.834787563438711 37.7477038121089 4.00000000000001
vertex -0.834787563438711 37.7477038121089 1.52443839650958e-014
vertex 0.0275924365612918 35.4849398121089 1.55873799650958e-014
endloop
endfacet
facet normal -0.992643184334717 -0.121076457636622 2.83925494724443e-017
outer loop
vertex -1.12797756343871 40.1514168121089 4.00000000000001
vertex -1.12797756343871 40.1514168121089 1.47274549650958e-014
vertex -0.834787563438711 37.7477038121089 1.52443839650958e-014
endloop
endfacet
facet normal -0.992643184334717 0.121076457636621 0.0
outer loop
vertex -0.834787563438711 42.5551298121089 4.00000000000001
vertex -0.834787563438711 42.5551298121089 1.40669049650958e-014
vertex -1.12797756343871 40.1514168121089 1.47274549650958e-014
endloop
endfacet
facet normal -0.934436252884294 0.356130438597377 -2.41289040109797e-017
outer loop
vertex 0.0275924365612861 44.8178938121089 4.00000000000001
vertex 0.0275924365612861 44.8178938121089 1.33014659650958e-014
vertex -0.834787563438711 42.5551298121089 1.40669049650958e-014
endloop
endfacet
facet normal -0.82143786445708 0.570298022823324 0.0
outer loop
vertex 1.40858243656128 46.8070248121089 4.00000000000001
vertex 1.40858243656128 46.8070248121089 1.24760229650958e-014
vertex 0.0275924365612861 44.8178938121089 1.33014659650958e-014
endloop
endfacet
facet normal -0.660268665100472 0.751029486695722 0.0
outer loop
vertex 3.22722243656128 48.4058848121089 1.16389769650958e-014
vertex 1.40858243656128 46.8070248121089 1.24760229650958e-014
vertex 3.22722243656128 48.4058848121089 4.00000000000001
endloop
endfacet
facet normal -0.460384991189081 0.887719358743421 0.0
outer loop
vertex 5.37685943656128 49.5207198121089 1.08394119650958e-014
vertex 3.22722243656128 48.4058848121089 1.16389769650958e-014
vertex 5.37685943656128 49.5207198121089 4.00000000000001
endloop
endfacet
facet normal -0.233504773505764 0.972355655483127 0.0
outer loop
vertex 7.73144443656128 50.0861578121089 1.01242129650958e-014
vertex 5.37685943656128 49.5207198121089 1.08394119650958e-014
vertex 7.73144443656128 50.0861578121089 4.00000000000001
endloop
endfacet
facet normal 0.00706785287953418 0.999975022415897 7.04609512487415e-019
outer loop
vertex 10.1529114365613 50.0690428121089 9.53531596509579e-015
vertex 7.73144443656128 50.0861578121089 1.01242129650958e-014
vertex 10.1529114365613 50.0690428121089 4.00000000000001
endloop
endfacet
facet normal 0.00706785287953418 0.999975022415897 3.52304756243708e-019
outer loop
vertex 10.1529114365613 50.0690428121089 4.00000000000001
vertex 7.73144443656128 50.0861578121089 1.01242129650958e-014
vertex 7.73144443656128 50.0861578121089 4.00000000000001
endloop
endfacet
facet normal -0.233504773505764 0.972355655483127 1.15939878413255e-017
outer loop
vertex 7.73144443656128 50.0861578121089 4.00000000000001
vertex 5.37685943656128 49.5207198121089 1.08394119650958e-014
vertex 5.37685943656128 49.5207198121089 4.00000000000001
endloop
endfacet
facet normal -0.460384991189081 0.887719358743421 -2.53987223871302e-017
outer loop
vertex 5.37685943656128 49.5207198121089 4.00000000000001
vertex 3.22722243656128 48.4058848121089 1.16389769650958e-014
vertex 3.22722243656128 48.4058848121089 4.00000000000001
endloop
endfacet
facet normal -0.660268665100472 0.751029486695722 -6.00426627618487e-017
outer loop
vertex 3.22722243656128 48.4058848121089 4.00000000000001
vertex 1.40858243656128 46.8070248121089 1.24760229650958e-014
vertex 1.40858243656128 46.8070248121089 4.00000000000001
endloop
endfacet
facet normal -0.82143786445708 0.570298022823324 -2.74482325206262e-017
outer loop
vertex 1.40858243656128 46.8070248121089 4.00000000000001
vertex 0.0275924365612861 44.8178938121089 1.33014659650958e-014
vertex 0.0275924365612861 44.8178938121089 4.00000000000001
endloop
endfacet
facet normal -0.934436252884294 0.356130438597377 -2.41289040109797e-017
outer loop
vertex 0.0275924365612861 44.8178938121089 4.00000000000001
vertex -0.834787563438711 42.5551298121089 1.40669049650958e-014
vertex -0.834787563438711 42.5551298121089 4.00000000000001
endloop
endfacet
facet normal -0.992643184334717 0.121076457636621 -3.4071059366933e-017
outer loop
vertex -0.834787563438711 42.5551298121089 4.00000000000001
vertex -1.12797756343871 40.1514168121089 1.47274549650958e-014
vertex -1.12797756343871 40.1514168121089 4.00000000000001
endloop
endfacet
facet normal -0.992643184334717 -0.121076457636622 5.67850989448885e-018
outer loop
vertex -1.12797756343871 40.1514168121089 4.00000000000001
vertex -0.834787563438711 37.7477038121089 1.52443839650958e-014
vertex -0.834787563438711 37.7477038121089 4.00000000000001
endloop
endfacet
facet normal -0.934436252884294 -0.356130438597378 0.0
outer loop
vertex -0.834787563438711 37.7477038121089 4.00000000000001
vertex 0.0275924365612918 35.4849398121089 1.55873799650958e-014
vertex 0.0275924365612918 35.4849398121089 4.00000000000001
endloop
endfacet
facet normal -0.821437864457079 -0.570298022823324 0.0
outer loop
vertex 0.0275924365612918 35.4849398121089 4.00000000000001
vertex 1.40858243656129 33.4958088121089 1.57363329650958e-014
vertex 1.40858243656129 33.4958088121089 4.00000000000001
endloop
endfacet
facet normal -0.660268665100472 -0.751029486695723 3.00213313809244e-017
outer loop
vertex 3.22722243656129 31.8969488121089 4.00000000000001
vertex 1.40858243656129 33.4958088121089 4.00000000000001
vertex 3.22722243656129 31.8969488121089 1.56825029650958e-014
endloop
endfacet
facet normal -0.46038499118908 -0.887719358743421 2.53987223871303e-017
outer loop
vertex 5.37685943656129 30.7821138121089 4.00000000000001
vertex 3.22722243656129 31.8969488121089 4.00000000000001
vertex 5.37685943656129 30.7821138121089 1.54290469650958e-014
endloop
endfacet
facet normal -0.233504773505764 -0.972355655483127 1.15939878413255e-017
outer loop
vertex 7.73144443656129 30.2166758121089 4.00000000000001
vertex 5.37685943656129 30.7821138121089 4.00000000000001
vertex 7.73144443656129 30.2166758121089 1.49908319650958e-014
endloop
endfacet
facet normal 0.00706785287953497 -0.999975022415897 -3.52304756243708e-019
outer loop
vertex 10.1529114365613 30.2337908121089 4.00000000000001
vertex 7.73144443656129 30.2166758121089 4.00000000000001
vertex 10.1529114365613 30.2337908121089 1.43935519650958e-014
endloop
endfacet
facet normal 0.128088990713983 0.991762678496158 0.0
outer loop
vertex 28.2480424365613 47.7320048121089 4.00000000000001
vertex 10.1529114365613 50.0690428121089 9.53531596509579e-015
vertex 10.1529114365613 50.0690428121089 4.00000000000001
endloop
endfacet
facet normal 0.128088990713983 0.991762678496158 0.0
outer loop
vertex 28.2480424365613 47.7320048121089 5.6756964850958e-015
vertex 10.1529114365613 50.0690428121089 9.53531596509579e-015
vertex 28.2480424365613 47.7320048121089 4.00000000000001
endloop
endfacet
facet normal 0.128088990713983 -0.991762678496158 5.12578877185789e-017
outer loop
vertex 28.2480424365613 32.5708288121089 9.38911396509579e-015
vertex 10.1529114365613 30.2337908121089 4.00000000000001
vertex 10.1529114365613 30.2337908121089 1.43935519650958e-014
endloop
endfacet
facet normal 0.128088990713983 -0.991762678496158 0.0
outer loop
vertex 28.2480424365613 32.5708288121089 4.00000000000001
vertex 10.1529114365613 30.2337908121089 4.00000000000001
vertex 28.2480424365613 32.5708288121089 9.38911396509579e-015
endloop
endfacet
facet normal 0.274728203720103 0.961521925949027 0.0
outer loop
vertex 28.3916224365613 47.6909808121089 5.65057873509579e-015
vertex 28.2480424365613 47.7320048121089 5.6756964850958e-015
vertex 28.3916224365613 47.6909808121089 4.00000000000001
endloop
endfacet
facet normal 0.546449384201035 0.837492131608596 1.72870080041019e-018
outer loop
vertex 28.5166724365613 47.6093878121089 5.63993296509579e-015
vertex 28.3916224365613 47.6909808121089 5.65057873509579e-015
vertex 28.5166724365613 47.6093878121089 4.00000000000001
endloop
endfacet
facet normal 0.769359084290029 0.638816561635975 -1.88158585639311e-018
outer loop
vertex 28.6120624365613 47.4945048121089 4.00000000000001
vertex 28.6120624365613 47.4945048121089 5.6447082160958e-015
vertex 28.5166724365613 47.6093878121089 5.63993296509579e-015
endloop
endfacet
facet normal 0.923691942657022 0.383136000749729 0.0
outer loop
vertex 28.6692724365613 47.3565788121089 4.00000000000001
vertex 28.6692724365613 47.3565788121089 5.6644778450958e-015
vertex 28.6120624365613 47.4945048121089 5.6447082160958e-015
endloop
endfacet
facet normal 0.995639145265564 0.0932882222730007 0.0
outer loop
vertex 28.6832024365613 47.2079078121089 4.00000000000001
vertex 28.6832024365613 47.2079078121089 5.6974798350958e-015
vertex 28.6692724365613 47.3565788121089 5.6644778450958e-015
endloop
endfacet
facet normal 0.978790843859985 -0.204862109663691 -7.3952170241181e-019
outer loop
vertex 28.6526124365613 47.0617548121089 4.00000000000001
vertex 28.6526124365613 47.0617548121089 5.7407704650958e-015
vertex 28.6832024365613 47.2079078121089 5.6974798350958e-015
endloop
endfacet
facet normal 0.978790843859985 -0.204862109663691 -7.3952170241181e-019
outer loop
vertex 28.6526124365613 47.0617548121089 4.00000000000001
vertex 28.6832024365613 47.2079078121089 5.6974798350958e-015
vertex 28.6832024365613 47.2079078121089 4.00000000000001
endloop
endfacet
facet normal 0.995639145265564 0.0932882222730007 0.0
outer loop
vertex 28.6832024365613 47.2079078121089 4.00000000000001
vertex 28.6692724365613 47.3565788121089 5.6644778450958e-015
vertex 28.6692724365613 47.3565788121089 4.00000000000001
endloop
endfacet
facet normal 0.923691942657022 0.383136000749729 0.0
outer loop
vertex 28.6692724365613 47.3565788121089 4.00000000000001
vertex 28.6120624365613 47.4945048121089 5.6447082160958e-015
vertex 28.6120624365613 47.4945048121089 4.00000000000001
endloop
endfacet
facet normal 0.769359084290029 0.638816561635975 -1.88158585639311e-018
outer loop
vertex 28.6120624365613 47.4945048121089 4.00000000000001
vertex 28.5166724365613 47.6093878121089 5.63993296509579e-015
vertex 28.5166724365613 47.6093878121089 4.00000000000001
endloop
endfacet
facet normal 0.546449384201035 0.837492131608596 1.72870080041019e-018
outer loop
vertex 28.5166724365613 47.6093878121089 4.00000000000001
vertex 28.3916224365613 47.6909808121089 5.65057873509579e-015
vertex 28.3916224365613 47.6909808121089 4.00000000000001
endloop
endfacet
facet normal 0.274728203720103 0.961521925949027 0.0
outer loop
vertex 28.3916224365613 47.6909808121089 4.00000000000001
vertex 28.2480424365613 47.7320048121089 5.6756964850958e-015
vertex 28.2480424365613 47.7320048121089 4.00000000000001
endloop
endfacet
facet normal 0.937219395780775 -0.348740310506715 0.0
outer loop
vertex 28.6526124365613 47.0617548121089 4.00000000000001
vertex 27.4952524365613 43.9514168121089 6.78605296509579e-015
vertex 28.6526124365613 47.0617548121089 5.7407704650958e-015
endloop
endfacet
facet normal 0.937219395780775 -0.348740310506715 -2.56166614409589e-017
outer loop
vertex 27.4952524365613 43.9514168121089 4.00000000000001
vertex 27.4952524365613 43.9514168121089 6.78605296509579e-015
vertex 28.6526124365613 47.0617548121089 4.00000000000001
endloop
endfacet
facet normal 3.95516952522712e-016 -1.0 0.0
outer loop
vertex 27.4952524365613 43.9514168121089 4.00000000000001
vertex 27.0183424365613 43.9514168121089 4.00000000000001
vertex 27.4952524365613 43.9514168121089 6.78605296509579e-015
endloop
endfacet
facet normal 3.95516952522712e-016 -1.0 0.0
outer loop
vertex 27.4952524365613 43.9514168121089 6.78605296509579e-015
vertex 27.0183424365613 43.9514168121089 4.00000000000001
vertex 27.0183424365613 43.9514168121089 6.9028629650958e-015
endloop
endfacet
facet normal 0.978790843859985 0.204862109663692 -7.39521702411811e-019
outer loop
vertex 28.6832024365613 33.0949258121089 4.00000000000001
vertex 28.6832024365613 33.0949258121089 9.15416396509579e-015
vertex 28.6526124365613 33.2410788121089 9.12585996509579e-015
endloop
endfacet
facet normal 0.995639145265564 -0.0932882222729999 3.63492903495975e-019
outer loop
vertex 28.6692724365613 32.9462548121089 4.00000000000001
vertex 28.6692724365613 32.9462548121089 9.19398896509579e-015
vertex 28.6832024365613 33.0949258121089 9.15416396509579e-015
endloop
endfacet
facet normal 0.923691942657022 -0.383136000749729 0.0
outer loop
vertex 28.6120624365613 32.8083288121089 4.00000000000001
vertex 28.6120624365613 32.8083288121089 9.24178396509579e-015
vertex 28.6692724365613 32.9462548121089 9.19398896509579e-015
endloop
endfacet
facet normal 0.769359084290029 -0.638816561635974 0.0
outer loop
vertex 28.5166724365613 32.6934458121089 4.00000000000001
vertex 28.5166724365613 32.6934458121089 9.29328496509579e-015
vertex 28.6120624365613 32.8083288121089 9.24178396509579e-015
endloop
endfacet
facet normal 0.546449384201036 -0.837492131608596 0.0
outer loop
vertex 28.5166724365613 32.6934458121089 9.29328496509579e-015
vertex 28.3916224365613 32.6118528121089 4.00000000000001
vertex 28.3916224365613 32.6118528121089 9.34389996509579e-015
endloop
endfacet
facet normal 0.274728203720104 -0.961521925949027 -7.52744841781256e-019
outer loop
vertex 28.3916224365613 32.6118528121089 9.34389996509579e-015
vertex 28.2480424365613 32.5708288121089 4.00000000000001
vertex 28.2480424365613 32.5708288121089 9.38911396509579e-015
endloop
endfacet
facet normal 0.274728203720104 -0.961521925949027 -7.52744841781256e-019
outer loop
vertex 28.3916224365613 32.6118528121089 4.00000000000001
vertex 28.2480424365613 32.5708288121089 4.00000000000001
vertex 28.3916224365613 32.6118528121089 9.34389996509579e-015
endloop
endfacet
facet normal 0.546449384201036 -0.837492131608596 0.0
outer loop
vertex 28.5166724365613 32.6934458121089 4.00000000000001
vertex 28.3916224365613 32.6118528121089 4.00000000000001
vertex 28.5166724365613 32.6934458121089 9.29328496509579e-015
endloop
endfacet
facet normal 0.769359084290029 -0.638816561635974 -3.76317171278623e-018
outer loop
vertex 28.5166724365613 32.6934458121089 4.00000000000001
vertex 28.6120624365613 32.8083288121089 9.24178396509579e-015
vertex 28.6120624365613 32.8083288121089 4.00000000000001
endloop
endfacet
facet normal 0.923691942657022 -0.383136000749729 0.0
outer loop
vertex 28.6120624365613 32.8083288121089 4.00000000000001
vertex 28.6692724365613 32.9462548121089 9.19398896509579e-015
vertex 28.6692724365613 32.9462548121089 4.00000000000001
endloop
endfacet
facet normal 0.995639145265564 -0.0932882222729999 0.0
outer loop
vertex 28.6692724365613 32.9462548121089 4.00000000000001
vertex 28.6832024365613 33.0949258121089 9.15416396509579e-015
vertex 28.6832024365613 33.0949258121089 4.00000000000001
endloop
endfacet
facet normal 0.978790843859985 0.204862109663692 -7.39521702411811e-019
outer loop
vertex 28.6832024365613 33.0949258121089 4.00000000000001
vertex 28.6526124365613 33.2410788121089 9.12585996509579e-015
vertex 28.6526124365613 33.2410788121089 4.00000000000001
endloop
endfacet
facet normal 0.937219395780774 0.348740310506716 0.0
outer loop
vertex 28.6526124365613 33.2410788121089 4.00000000000001
vertex 27.4952524365613 36.3514168121089 8.64751596509579e-015
vertex 27.4952524365613 36.3514168121089 4.00000000000001
endloop
endfacet
facet normal 0.937219395780774 0.348740310506716 0.0
outer loop
vertex 28.6526124365613 33.2410788121089 4.00000000000001
vertex 28.6526124365613 33.2410788121089 9.12585996509579e-015
vertex 27.4952524365613 36.3514168121089 8.64751596509579e-015
endloop
endfacet
facet normal -3.95516952522712e-016 1.0 0.0
outer loop
vertex 27.4952524365613 36.3514168121089 8.64751596509579e-015
vertex 27.0183424365613 36.3514168121089 8.76432596509579e-015
vertex 27.4952524365613 36.3514168121089 4.00000000000001
endloop
endfacet
facet normal -3.95516952522712e-016 1.0 0.0
outer loop
vertex 27.4952524365613 36.3514168121089 4.00000000000001
vertex 27.0183424365613 36.3514168121089 8.76432596509579e-015
vertex 27.0183424365613 36.3514168121089 4.00000000000001
endloop
endfacet
facet normal -0.995997308515323 0.0893832279022926 -4.49508501733487e-019
outer loop
vertex 26.5308524365613 35.9625778121089 4.00000000000001
vertex 26.5308524365613 35.9625778121089 8.97896396509579e-015
vertex 26.5188524365613 35.8288618121089 9.0146549650958e-015
endloop
endfacet
facet normal -0.936299481761214 0.351202620226106 0.0
outer loop
vertex 26.5780024365613 36.0882788121089 4.00000000000001
vertex 26.5780024365613 36.0882788121089 8.93662796509579e-015
vertex 26.5308524365613 35.9625778121089 8.97896396509579e-015
endloop
endfacet
facet normal -0.809090243254168 0.587684420646754 2.21331830049427e-018
outer loop
vertex 26.6569024365613 36.1969038121089 4.00000000000001
vertex 26.6569024365613 36.1969038121089 8.89069796509579e-015
vertex 26.5780024365613 36.0882788121089 8.93662796509579e-015
endloop
endfacet
facet normal -0.623549867023922 0.781783578322318 0.0
outer loop
vertex 26.7618624365613 36.2806198121089 8.8444869650958e-015
vertex 26.6569024365613 36.1969038121089 8.89069796509579e-015
vertex 26.7618624365613 36.2806198121089 4.00000000000001
endloop
endfacet
facet normal -0.393101944805791 0.919494894488221 -1.94779831502298e-018
outer loop
vertex 26.8853024365613 36.3333928121089 8.8013259650958e-015
vertex 26.7618624365613 36.2806198121089 8.8444869650958e-015
vertex 26.8853024365613 36.3333928121089 4.00000000000001
endloop
endfacet
facet normal -0.13425160646419 0.990947277185716 -4.51785798066652e-019
outer loop
vertex 27.0183424365613 36.3514168121089 8.76432596509579e-015
vertex 26.8853024365613 36.3333928121089 8.8013259650958e-015
vertex 27.0183424365613 36.3514168121089 4.00000000000001
endloop
endfacet
facet normal -0.13425160646419 0.990947277185716 4.51785798066652e-019
outer loop
vertex 27.0183424365613 36.3514168121089 4.00000000000001
vertex 26.8853024365613 36.3333928121089 8.8013259650958e-015
vertex 26.8853024365613 36.3333928121089 4.00000000000001
endloop
endfacet
facet normal -0.393101944805791 0.919494894488221 -9.73899157511491e-019
outer loop
vertex 26.8853024365613 36.3333928121089 4.00000000000001
vertex 26.7618624365613 36.2806198121089 8.8444869650958e-015
vertex 26.7618624365613 36.2806198121089 4.00000000000001
endloop
endfacet
facet normal -0.623549867023922 0.781783578322318 0.0
outer loop
vertex 26.7618624365613 36.2806198121089 4.00000000000001
vertex 26.6569024365613 36.1969038121089 8.89069796509579e-015
vertex 26.6569024365613 36.1969038121089 4.00000000000001
endloop
endfacet
facet normal -0.809090243254168 0.587684420646754 0.0
outer loop
vertex 26.6569024365613 36.1969038121089 4.00000000000001
vertex 26.5780024365613 36.0882788121089 8.93662796509579e-015
vertex 26.5780024365613 36.0882788121089 4.00000000000001
endloop
endfacet
facet normal -0.936299481761214 0.351202620226106 -2.86902984801114e-018
outer loop
vertex 26.5780024365613 36.0882788121089 4.00000000000001
vertex 26.5308524365613 35.9625778121089 8.97896396509579e-015
vertex 26.5308524365613 35.9625778121089 4.00000000000001
endloop
endfacet
facet normal -0.995997308515323 0.0893832279022926 -2.24754250866744e-019
outer loop
vertex 26.5308524365613 35.9625778121089 4.00000000000001
vertex 26.5188524365613 35.8288618121089 9.0146549650958e-015
vertex 26.5188524365613 35.8288618121089 4.00000000000001
endloop
endfacet
facet normal -0.998981974896988 -0.0451111275730694 1.48854804349856e-018
outer loop
vertex 26.5188524365613 35.8288618121089 4.00000000000001
vertex 26.5720224365613 34.6514168121089 9.29002396509579e-015
vertex 26.5720224365613 34.6514168121089 4.00000000000001
endloop
endfacet
facet normal -0.998981974896988 -0.0451111275730694 1.48854804349856e-018
outer loop
vertex 26.5188524365613 35.8288618121089 4.00000000000001
vertex 26.5188524365613 35.8288618121089 9.0146549650958e-015
vertex 26.5720224365613 34.6514168121089 9.29002396509579e-015
endloop
endfacet
facet normal -0.0451104098987821 0.998982007304818 1.55843663276092e-017
outer loop
vertex 26.5720224365613 34.6514168121089 9.29002396509579e-015
vertex 10.1039614365613 33.9077788121089 1.35056739650958e-014
vertex 26.5720224365613 34.6514168121089 4.00000000000001
endloop
endfacet
facet normal -0.045110409898782 0.998982007304818 -3.11687326552184e-017
outer loop
vertex 26.5720224365613 34.6514168121089 4.00000000000001
vertex 10.1039614365613 33.9077788121089 1.35056739650958e-014
vertex 10.1039614365613 33.9077788121089 4.00000000000001
endloop
endfacet
facet normal 0.101600984252482 -0.99482523088175 -4.96227384498433e-018
outer loop
vertex 10.1039614365613 46.3950548121089 1.04471729650958e-014
vertex 8.28375243656129 46.2091578121089 4.00000000000001
vertex 8.28375243656129 46.2091578121089 1.09385279650958e-014
endloop
endfacet
facet normal 0.385343688561454 -0.922773125793038 2.13989276754411e-017
outer loop
vertex 8.28375243656129 46.2091578121089 1.09385279650958e-014
vertex 6.59537443656129 45.5041028121089 4.00000000000001
vertex 6.59537443656129 45.5041028121089 1.15247489650958e-014
endloop
endfacet
facet normal 0.636062054281957 -0.771637909321864 -2.55902254383187e-017
outer loop
vertex 6.59537443656129 45.5041028121089 1.15247489650958e-014
vertex 5.18352643656128 44.3403148121089 4.00000000000001
vertex 5.18352643656128 44.3403148121089 1.21555989650958e-014
endloop
endfacet
facet normal 0.832269435667686 -0.554371343463379 2.37259279665715e-017
outer loop
vertex 4.16920543656129 42.8175298121089 4.00000000000001
vertex 4.16920543656129 42.8175298121089 1.27770099650958e-014
vertex 5.18352643656128 44.3403148121089 1.21555989650958e-014
endloop
endfacet
facet normal 0.957149634240858 -0.289593814976412 3.09456236550241e-017
outer loop
vertex 3.63934243656129 41.0662556121089 4.00000000000001
vertex 3.63934243656129 41.0662556121089 1.33357289650958e-014
vertex 4.16920543656129 42.8175298121089 1.27770099650958e-014
endloop
endfacet
facet normal 1.0 3.95516952522712e-016 0.0
outer loop
vertex 3.63934243656129 39.2365780121089 4.00000000000001
vertex 3.63934243656129 39.2365780121089 1.37838699650958e-014
vertex 3.63934243656129 41.0662556121089 1.33357289650958e-014
endloop
endfacet
facet normal 0.957149634240857 0.289593814976413 -2.06304157700161e-017
outer loop
vertex 4.16920543656129 37.4853038121089 4.00000000000001
vertex 4.16920543656129 37.4853038121089 1.40830289650958e-014
vertex 3.63934243656129 39.2365780121089 1.37838699650958e-014
endloop
endfacet
facet normal 0.832269435667686 0.554371343463379 0.0
outer loop
vertex 5.18352643656129 35.9625188121089 4.00000000000001
vertex 5.18352643656129 35.9625188121089 1.42075669650958e-014
vertex 4.16920543656129 37.4853038121089 1.40830289650958e-014
endloop
endfacet
facet normal 0.636062054281956 0.771637909321864 2.55902254383188e-017
outer loop
vertex 6.59537443656129 34.7987308121089 1.41468089650958e-014
vertex 5.18352643656129 35.9625188121089 1.42075669650958e-014
vertex 6.59537443656129 34.7987308121089 4.00000000000001
endloop
endfacet
facet normal 0.385343688561454 0.922773125793038 0.0
outer loop
vertex 8.28375243656129 34.0936758121089 1.39059649650958e-014
vertex 6.59537443656129 34.7987308121089 1.41468089650958e-014
vertex 8.28375243656129 34.0936758121089 4.00000000000001
endloop
endfacet
facet normal 0.101600984252481 0.99482523088175 4.96227384498434e-018
outer loop
vertex 10.1039614365613 33.9077788121089 1.35056739650958e-014
vertex 8.28375243656129 34.0936758121089 1.39059649650958e-014
vertex 10.1039614365613 33.9077788121089 4.00000000000001
endloop
endfacet
facet normal 0.101600984252481 0.99482523088175 0.0
outer loop
vertex 10.1039614365613 33.9077788121089 4.00000000000001
vertex 8.28375243656129 34.0936758121089 1.39059649650958e-014
vertex 8.28375243656129 34.0936758121089 4.00000000000001
endloop
endfacet
facet normal 0.385343688561454 0.922773125793038 0.0
outer loop
vertex 8.28375243656129 34.0936758121089 4.00000000000001
vertex 6.59537443656129 34.7987308121089 1.41468089650958e-014
vertex 6.59537443656129 34.7987308121089 4.00000000000001
endloop
endfacet
facet normal 0.636062054281957 0.771637909321864 0.0
outer loop
vertex 6.59537443656129 34.7987308121089 4.00000000000001
vertex 5.18352643656129 35.9625188121089 1.42075669650958e-014
vertex 5.18352643656129 35.9625188121089 4.00000000000001
endloop
endfacet
facet normal 0.832269435667686 0.554371343463379 -2.37259279665715e-017
outer loop
vertex 5.18352643656129 35.9625188121089 4.00000000000001
vertex 4.16920543656129 37.4853038121089 1.40830289650958e-014
vertex 4.16920543656129 37.4853038121089 4.00000000000001
endloop
endfacet
facet normal 0.957149634240857 0.289593814976413 -1.0315207885008e-017
outer loop
vertex 4.16920543656129 37.4853038121089 4.00000000000001
vertex 3.63934243656129 39.2365780121089 1.37838699650958e-014
vertex 3.63934243656129 39.2365780121089 4.00000000000001
endloop
endfacet
facet normal 1.0 3.95516952522712e-016 0.0
outer loop
vertex 3.63934243656129 39.2365780121089 4.00000000000001
vertex 3.63934243656129 41.0662556121089 1.33357289650958e-014
vertex 3.63934243656129 41.0662556121089 4.00000000000001
endloop
endfacet
facet normal 0.957149634240858 -0.289593814976412 0.0
outer loop
vertex 3.63934243656129 41.0662556121089 4.00000000000001
vertex 4.16920543656129 42.8175298121089 1.27770099650958e-014
vertex 4.16920543656129 42.8175298121089 4.00000000000001
endloop
endfacet
facet normal 0.832269435667686 -0.554371343463379 -2.37259279665715e-017
outer loop
vertex 4.16920543656129 42.8175298121089 4.00000000000001
vertex 5.18352643656128 44.3403148121089 1.21555989650958e-014
vertex 5.18352643656128 44.3403148121089 4.00000000000001
endloop
endfacet
facet normal 0.636062054281957 -0.771637909321864 -2.55902254383187e-017
outer loop
vertex 6.59537443656129 45.5041028121089 4.00000000000001
vertex 5.18352643656128 44.3403148121089 4.00000000000001
vertex 6.59537443656129 45.5041028121089 1.15247489650958e-014
endloop
endfacet
facet normal 0.385343688561454 -0.922773125793038 2.13989276754411e-017
outer loop
vertex 8.28375243656129 46.2091578121089 4.00000000000001
vertex 6.59537443656129 45.5041028121089 4.00000000000001
vertex 8.28375243656129 46.2091578121089 1.09385279650958e-014
endloop
endfacet
facet normal 0.101600984252482 -0.99482523088175 4.96227384498433e-018
outer loop
vertex 10.1039614365613 46.3950548121089 4.00000000000001
vertex 8.28375243656129 46.2091578121089 4.00000000000001
vertex 10.1039614365613 46.3950548121089 1.04471729650958e-014
endloop
endfacet
facet normal 0.0 0.0 1.0
outer loop
vertex 5.18352643656128 44.3403148121089 4.00000000000001
vertex 6.59537443656129 45.5041028121089 4.00000000000001
vertex 3.22722243656128 48.4058848121089 4.00000000000001
endloop
endfacet
facet normal 0.0 0.0 1.0
outer loop
vertex 6.59537443656129 45.5041028121089 4.00000000000001
vertex 5.37685943656128 49.5207198121089 4.00000000000001
vertex 3.22722243656128 48.4058848121089 4.00000000000001
endloop
endfacet
facet normal 0.0 0.0 1.0
outer loop
vertex 4.16920543656129 42.8175298121089 4.00000000000001
vertex 1.40858243656128 46.8070248121089 4.00000000000001
vertex 0.0275924365612861 44.8178938121089 4.00000000000001
endloop
endfacet
facet normal 0.0 0.0 1.0
outer loop
vertex -0.834787563438711 37.7477038121089 4.00000000000001
vertex 3.63934243656129 39.2365780121089 4.00000000000001
vertex -1.12797756343871 40.1514168121089 4.00000000000001
endloop
endfacet
facet normal 0.0 0.0 1.0
outer loop
vertex 4.16920543656129 42.8175298121089 4.00000000000001
vertex 5.18352643656128 44.3403148121089 4.00000000000001
vertex 1.40858243656128 46.8070248121089 4.00000000000001
endloop
endfacet
facet normal 0.0 0.0 1.0
outer loop
vertex 3.63934243656129 41.0662556121089 4.00000000000001
vertex 4.16920543656129 42.8175298121089 4.00000000000001
vertex -0.834787563438711 42.5551298121089 4.00000000000001
endloop
endfacet
facet normal 0.0 0.0 1.0
outer loop
vertex -1.12797756343871 40.1514168121089 4.00000000000001
vertex 3.63934243656129 41.0662556121089 4.00000000000001
vertex -0.834787563438711 42.5551298121089 4.00000000000001
endloop
endfacet
facet normal 0.0 0.0 1.0
outer loop
vertex 0.0275924365612918 35.4849398121089 4.00000000000001
vertex 4.16920543656129 37.4853038121089 4.00000000000001
vertex -0.834787563438711 37.7477038121089 4.00000000000001
endloop
endfacet
facet normal 0.0 0.0 1.0
outer loop
vertex 28.2480424365613 32.5708288121089 4.00000000000001
vertex 28.3916224365613 32.6118528121089 4.00000000000001
vertex 26.5720224365613 34.6514168121089 4.00000000000001
endloop
endfacet
facet normal 0.0 0.0 1.0
outer loop
vertex 26.5720224365613 45.6514168121089 4.00000000000001
vertex 28.5166724365613 47.6093878121089 4.00000000000001
vertex 28.3916224365613 47.6909808121089 4.00000000000001
endloop
endfacet
facet normal 0.0 0.0 1.0
outer loop
vertex -0.834787563438711 42.5551298121089 4.00000000000001
vertex 4.16920543656129 42.8175298121089 4.00000000000001
vertex 0.0275924365612861 44.8178938121089 4.00000000000001
endloop
endfacet
facet normal 0.0 0.0 1.0
outer loop
vertex 4.16920543656129 37.4853038121089 4.00000000000001
vertex 3.63934243656129 39.2365780121089 4.00000000000001
vertex -0.834787563438711 37.7477038121089 4.00000000000001
endloop
endfacet
facet normal 0.0 0.0 1.0
outer loop
vertex 28.3916224365613 32.6118528121089 4.00000000000001
vertex 28.5166724365613 32.6934458121089 4.00000000000001
vertex 26.5720224365613 34.6514168121089 4.00000000000001
endloop
endfacet
facet normal 0.0 0.0 1.0
outer loop
vertex 10.1529114365613 30.2337908121089 4.00000000000001
vertex 28.2480424365613 32.5708288121089 4.00000000000001
vertex 26.5720224365613 34.6514168121089 4.00000000000001
endloop
endfacet
facet normal 0.0 0.0 1.0
outer loop
vertex 26.5720224365613 45.6514168121089 4.00000000000001
vertex 10.1529114365613 50.0690428121089 4.00000000000001
vertex 10.1039614365613 46.3950548121089 4.00000000000001
endloop
endfacet
facet normal 0.0 0.0 1.0
outer loop
vertex 26.5720224365613 45.6514168121089 4.00000000000001
vertex 28.6120624365613 47.4945048121089 4.00000000000001
vertex 28.5166724365613 47.6093878121089 4.00000000000001
endloop
endfacet
facet normal 0.0 0.0 1.0
outer loop
vertex 3.63934243656129 39.2365780121089 4.00000000000001
vertex 3.63934243656129 41.0662556121089 4.00000000000001
vertex -1.12797756343871 40.1514168121089 4.00000000000001
endloop
endfacet
facet normal 0.0 0.0 1.0
outer loop
vertex 1.40858243656129 33.4958088121089 4.00000000000001
vertex 5.18352643656129 35.9625188121089 4.00000000000001
vertex 4.16920543656129 37.4853038121089 4.00000000000001
endloop
endfacet
facet normal 0.0 0.0 1.0
outer loop
vertex 5.37685943656129 30.7821138121089 4.00000000000001
vertex 6.59537443656129 34.7987308121089 4.00000000000001
vertex 3.22722243656129 31.8969488121089 4.00000000000001
endloop
endfacet
facet normal 0.0 0.0 1.0
outer loop
vertex 7.73144443656129 30.2166758121089 4.00000000000001
vertex 10.1529114365613 30.2337908121089 4.00000000000001
vertex 10.1039614365613 33.9077788121089 4.00000000000001
endloop
endfacet
facet normal 0.0 0.0 1.0
outer loop
vertex 10.1529114365613 30.2337908121089 4.00000000000001
vertex 26.5720224365613 34.6514168121089 4.00000000000001
vertex 10.1039614365613 33.9077788121089 4.00000000000001
endloop
endfacet
facet normal 0.0 0.0 1.0
outer loop
vertex 26.5188524365613 35.8288618121089 4.00000000000001
vertex 26.8853024365613 36.3333928121089 4.00000000000001
vertex 26.7618624365613 36.2806198121089 4.00000000000001
endloop
endfacet
facet normal 0.0 0.0 1.0
outer loop
vertex 26.8853024365613 43.9694408121089 4.00000000000001
vertex 26.5780024365613 44.2145548121089 4.00000000000001
vertex 26.7618624365613 44.0222138121089 4.00000000000001
endloop
endfacet
facet normal 0.0 0.0 1.0
outer loop
vertex 26.5720224365613 45.6514168121089 4.00000000000001
vertex 28.3916224365613 47.6909808121089 4.00000000000001
vertex 28.2480424365613 47.7320048121089 4.00000000000001
endloop
endfacet
facet normal 0.0 0.0 1.0
outer loop
vertex 8.28375243656129 46.2091578121089 4.00000000000001
vertex 10.1039614365613 46.3950548121089 4.00000000000001
vertex 7.73144443656128 50.0861578121089 4.00000000000001
endloop
endfacet
facet normal 0.0 0.0 1.0
outer loop
vertex 1.40858243656129 33.4958088121089 4.00000000000001
vertex 4.16920543656129 37.4853038121089 4.00000000000001
vertex 0.0275924365612918 35.4849398121089 4.00000000000001
endloop
endfacet
facet normal 0.0 0.0 1.0
outer loop
vertex 3.22722243656129 31.8969488121089 4.00000000000001
vertex 5.18352643656129 35.9625188121089 4.00000000000001
vertex 1.40858243656129 33.4958088121089 4.00000000000001
endloop
endfacet
facet normal 0.0 0.0 1.0
outer loop
vertex 7.73144443656129 30.2166758121089 4.00000000000001
vertex 8.28375243656129 34.0936758121089 4.00000000000001
vertex 5.37685943656129 30.7821138121089 4.00000000000001
endloop
endfacet
facet normal 0.0 0.0 1.0
outer loop
vertex 28.5166724365613 32.6934458121089 4.00000000000001
vertex 28.6120624365613 32.8083288121089 4.00000000000001
vertex 26.5720224365613 34.6514168121089 4.00000000000001
endloop
endfacet
facet normal 0.0 0.0 1.0
outer loop
vertex 28.6692724365613 32.9462548121089 4.00000000000001
vertex 28.6832024365613 33.0949258121089 4.00000000000001
vertex 26.5720224365613 34.6514168121089 4.00000000000001
endloop
endfacet
facet normal 0.0 0.0 1.0
outer loop
vertex 26.5188524365613 35.8288618121089 4.00000000000001
vertex 27.0183424365613 36.3514168121089 4.00000000000001
vertex 26.8853024365613 36.3333928121089 4.00000000000001
endloop
endfacet
facet normal 0.0 0.0 1.0
outer loop
vertex 27.0183424365613 43.9514168121089 4.00000000000001
vertex 26.5188524365613 44.4739718121089 4.00000000000001
vertex 26.5308524365613 44.3402558121089 4.00000000000001
endloop
endfacet
facet normal 0.0 0.0 1.0
outer loop
vertex 26.5720224365613 45.6514168121089 4.00000000000001
vertex 28.6526124365613 47.0617548121089 4.00000000000001
vertex 28.6832024365613 47.2079078121089 4.00000000000001
endloop
endfacet
facet normal 0.0 0.0 1.0
outer loop
vertex 10.1039614365613 46.3950548121089 4.00000000000001
vertex 10.1529114365613 50.0690428121089 4.00000000000001
vertex 7.73144443656128 50.0861578121089 4.00000000000001
endloop
endfacet
facet normal 0.0 0.0 1.0
outer loop
vertex 6.59537443656129 45.5041028121089 4.00000000000001
vertex 8.28375243656129 46.2091578121089 4.00000000000001
vertex 5.37685943656128 49.5207198121089 4.00000000000001
endloop
endfacet
facet normal 0.0 0.0 1.0
outer loop
vertex 3.22722243656129 31.8969488121089 4.00000000000001
vertex 6.59537443656129 34.7987308121089 4.00000000000001
vertex 5.18352643656129 35.9625188121089 4.00000000000001
endloop
endfacet
facet normal 0.0 0.0 1.0
outer loop
vertex 7.73144443656129 30.2166758121089 4.00000000000001
vertex 10.1039614365613 33.9077788121089 4.00000000000001
vertex 8.28375243656129 34.0936758121089 4.00000000000001
endloop
endfacet
facet normal 0.0 0.0 1.0
outer loop
vertex 26.5720224365613 34.6514168121089 4.00000000000001
vertex 27.4952524365613 36.3514168121089 4.00000000000001
vertex 26.5188524365613 35.8288618121089 4.00000000000001
endloop
endfacet
facet normal 0.0 0.0 1.0
outer loop
vertex 28.6120624365613 32.8083288121089 4.00000000000001
vertex 28.6692724365613 32.9462548121089 4.00000000000001
vertex 26.5720224365613 34.6514168121089 4.00000000000001
endloop
endfacet
facet normal 0.0 0.0 1.0
outer loop
vertex 26.5188524365613 35.8288618121089 4.00000000000001
vertex 26.7618624365613 36.2806198121089 4.00000000000001
vertex 26.6569024365613 36.1969038121089 4.00000000000001
endloop
endfacet
facet normal 0.0 0.0 1.0
outer loop
vertex 27.0183424365613 43.9514168121089 4.00000000000001
vertex 26.5308524365613 44.3402558121089 4.00000000000001
vertex 26.5780024365613 44.2145548121089 4.00000000000001
endloop
endfacet
facet normal 0.0 0.0 1.0
outer loop
vertex 26.5720224365613 45.6514168121089 4.00000000000001
vertex 28.6832024365613 47.2079078121089 4.00000000000001
vertex 28.6692724365613 47.3565788121089 4.00000000000001
endloop
endfacet
facet normal 0.0 0.0 1.0
outer loop
vertex 27.4952524365613 43.9514168121089 4.00000000000001
vertex 28.6526124365613 47.0617548121089 4.00000000000001
vertex 26.5720224365613 45.6514168121089 4.00000000000001
endloop
endfacet
facet normal 0.0 0.0 1.0
outer loop
vertex 8.28375243656129 46.2091578121089 4.00000000000001
vertex 7.73144443656128 50.0861578121089 4.00000000000001
vertex 5.37685943656128 49.5207198121089 4.00000000000001
endloop
endfacet
facet normal 0.0 0.0 1.0
outer loop
vertex 5.37685943656129 30.7821138121089 4.00000000000001
vertex 8.28375243656129 34.0936758121089 4.00000000000001
vertex 6.59537443656129 34.7987308121089 4.00000000000001
endloop
endfacet
facet normal 0.0 0.0 1.0
outer loop
vertex 28.6832024365613 33.0949258121089 4.00000000000001
vertex 28.6526124365613 33.2410788121089 4.00000000000001
vertex 26.5720224365613 34.6514168121089 4.00000000000001
endloop
endfacet
facet normal 0.0 0.0 1.0
outer loop
vertex 26.5188524365613 35.8288618121089 4.00000000000001
vertex 27.4952524365613 36.3514168121089 4.00000000000001
vertex 27.0183424365613 36.3514168121089 4.00000000000001
endloop
endfacet
facet normal 0.0 0.0 1.0
outer loop
vertex 27.0183424365613 43.9514168121089 4.00000000000001
vertex 26.5780024365613 44.2145548121089 4.00000000000001
vertex 26.8853024365613 43.9694408121089 4.00000000000001
endloop
endfacet
facet normal 0.0 0.0 1.0
outer loop
vertex 27.4952524365613 43.9514168121089 4.00000000000001
vertex 26.5720224365613 45.6514168121089 4.00000000000001
vertex 26.5188524365613 44.4739718121089 4.00000000000001
endloop
endfacet
facet normal 0.0 0.0 1.0
outer loop
vertex 5.18352643656128 44.3403148121089 4.00000000000001
vertex 3.22722243656128 48.4058848121089 4.00000000000001
vertex 1.40858243656128 46.8070248121089 4.00000000000001
endloop
endfacet
facet normal 0.0 0.0 1.0
outer loop
vertex 26.5188524365613 35.8288618121089 4.00000000000001
vertex 26.6569024365613 36.1969038121089 4.00000000000001
vertex 26.5308524365613 35.9625778121089 4.00000000000001
endloop
endfacet
facet normal 0.0 0.0 1.0
outer loop
vertex 26.5720224365613 45.6514168121089 4.00000000000001
vertex 28.6692724365613 47.3565788121089 4.00000000000001
vertex 28.6120624365613 47.4945048121089 4.00000000000001
endloop
endfacet
facet normal 0.0 0.0 1.0
outer loop
vertex 28.6526124365613 33.2410788121089 4.00000000000001
vertex 27.4952524365613 36.3514168121089 4.00000000000001
vertex 26.5720224365613 34.6514168121089 4.00000000000001
endloop
endfacet
facet normal 0.0 0.0 1.0
outer loop
vertex 26.5720224365613 45.6514168121089 4.00000000000001
vertex 28.2480424365613 47.7320048121089 4.00000000000001
vertex 10.1529114365613 50.0690428121089 4.00000000000001
endloop
endfacet
facet normal 0.0 0.0 1.0
outer loop
vertex 27.4952524365613 43.9514168121089 4.00000000000001
vertex 26.5188524365613 44.4739718121089 4.00000000000001
vertex 27.0183424365613 43.9514168121089 4.00000000000001
endloop
endfacet
facet normal -2.44930104739495e-016 -2.44929556342089e-016 -1.0
outer loop
vertex 3.22722243656129 31.8969488121089 1.56825029650958e-014
vertex 5.18352643656129 35.9625188121089 1.42075669650958e-014
vertex 6.59537443656129 34.7987308121089 1.41468089650958e-014
endloop
endfacet
facet normal -2.44929121602913e-016 -2.44928942672742e-016 -1.0
outer loop
vertex 3.63934243656129 39.2365780121089 1.37838699650958e-014
vertex -1.12797756343871 40.1514168121089 1.47274549650958e-014
vertex 3.63934243656129 41.0662556121089 1.33357289650958e-014
endloop
endfacet
facet normal -2.44924914310804e-016 -2.44924074265914e-016 -1.0
outer loop
vertex 28.5166724365613 32.6934458121089 9.29328496509579e-015
vertex 26.5720224365613 34.6514168121089 9.29002396509579e-015
vertex 28.6120624365613 32.8083288121089 9.24178396509579e-015
endloop
endfacet
facet normal -2.44930460868588e-016 -2.44929142976468e-016 -1.0
outer loop
vertex 5.37685943656129 30.7821138121089 1.54290469650958e-014
vertex 3.22722243656129 31.8969488121089 1.56825029650958e-014
vertex 6.59537443656129 34.7987308121089 1.41468089650958e-014
endloop
endfacet
facet normal -2.449291940427e-016 -2.44929955684682e-016 -1.0
outer loop
vertex 1.40858243656129 33.4958088121089 1.57363329650958e-014
vertex 0.0275924365612918 35.4849398121089 1.55873799650958e-014
vertex 4.16920543656129 37.4853038121089 1.40830289650958e-014
endloop
endfacet
facet normal -2.44929277085608e-016 -2.44929070241777e-016 -1.0
outer loop
vertex 4.16920543656129 37.4853038121089 1.40830289650958e-014
vertex -0.834787563438711 37.7477038121089 1.52443839650958e-014
vertex 3.63934243656129 39.2365780121089 1.37838699650958e-014
endloop
endfacet
facet normal -2.44929193997087e-016 -2.449293199263e-016 -1.0
outer loop
vertex -0.834787563438711 37.7477038121089 1.52443839650958e-014
vertex -1.12797756343871 40.1514168121089 1.47274549650958e-014
vertex 3.63934243656129 39.2365780121089 1.37838699650958e-014
endloop
endfacet
facet normal -2.44929337391117e-016 -2.4492929510529e-016 -1.0
outer loop
vertex 10.1529114365613 30.2337908121089 1.43935519650958e-014
vertex 10.1039614365613 33.9077788121089 1.35056739650958e-014
vertex 26.5720224365613 34.6514168121089 9.29002396509579e-015
endloop
endfacet
facet normal -2.44939711269223e-016 -2.44938770553647e-016 -1.0
outer loop
vertex 28.3916224365613 32.6118528121089 9.34389996509579e-015
vertex 26.5720224365613 34.6514168121089 9.29002396509579e-015
vertex 28.5166724365613 32.6934458121089 9.29328496509579e-015
endloop
endfacet
facet normal -2.44929599031873e-016 -2.44929675443092e-016 -1.0
outer loop
vertex 1.40858243656129 33.4958088121089 1.57363329650958e-014
vertex 4.16920543656129 37.4853038121089 1.40830289650958e-014
vertex 5.18352643656129 35.9625188121089 1.42075669650958e-014
endloop
endfacet
facet normal -2.44929093215439e-016 -2.44929090602815e-016 -1.0
outer loop
vertex -1.12797756343871 40.1514168121089 1.47274549650958e-014
vertex -0.834787563438711 42.5551298121089 1.40669049650958e-014
vertex 3.63934243656129 41.0662556121089 1.33357289650958e-014
endloop
endfacet
facet normal -2.44929381894999e-016 -2.44929283967026e-016 -1.0
outer loop
vertex 6.59537443656129 45.5041028121089 1.15247489650958e-014
vertex 3.22722243656128 48.4058848121089 1.16389769650958e-014
vertex 5.37685943656128 49.5207198121089 1.08394119650958e-014
endloop
endfacet
facet normal -2.44922476305092e-016 -2.4493513913526e-016 -1.0
outer loop
vertex 26.5720224365613 45.6514168121089 6.59580056509579e-015
vertex 28.2480424365613 47.7320048121089 5.6756964850958e-015
vertex 28.3916224365613 47.6909808121089 5.65057873509579e-015
endloop
endfacet
facet normal -2.44911146361939e-016 -2.44936763317054e-016 -1.0
outer loop
vertex 26.5188524365613 35.8288618121089 9.0146549650958e-015
vertex 26.6569024365613 36.1969038121089 8.89069796509579e-015
vertex 26.7618624365613 36.2806198121089 8.8444869650958e-015
endloop
endfacet
facet normal -2.44924105357711e-016 -2.44924847716911e-016 -1.0
outer loop
vertex 28.2480424365613 32.5708288121089 9.38911396509579e-015
vertex 26.5720224365613 34.6514168121089 9.29002396509579e-015
vertex 28.3916224365613 32.6118528121089 9.34389996509579e-015
endloop
endfacet
facet normal -2.44929349328129e-016 -2.44929213549466e-016 -1.0
outer loop
vertex 7.73144443656129 30.2166758121089 1.49908319650958e-014
vertex 8.28375243656129 34.0936758121089 1.39059649650958e-014
vertex 10.1039614365613 33.9077788121089 1.35056739650958e-014
endloop
endfacet
facet normal -2.4492931083635e-016 -2.44929713871642e-016 -1.0
outer loop
vertex 0.0275924365612918 35.4849398121089 1.55873799650958e-014
vertex -0.834787563438711 37.7477038121089 1.52443839650958e-014
vertex 4.16920543656129 37.4853038121089 1.40830289650958e-014
endloop
endfacet
facet normal -2.44929521762852e-016 -2.44929068617916e-016 -1.0
outer loop
vertex -0.834787563438711 42.5551298121089 1.40669049650958e-014
vertex 0.0275924365612861 44.8178938121089 1.33014659650958e-014
vertex 4.16920543656129 42.8175298121089 1.27770099650958e-014
endloop
endfacet
facet normal -2.44928966984984e-016 -2.44929130033999e-016 -1.0
outer loop
vertex 4.16920543656129 42.8175298121089 1.27770099650958e-014
vertex 1.40858243656128 46.8070248121089 1.24760229650958e-014
vertex 5.18352643656128 44.3403148121089 1.21555989650958e-014
endloop
endfacet
facet normal -2.4492920016855e-016 -2.44929486887826e-016 -1.0
outer loop
vertex 5.18352643656128 44.3403148121089 1.21555989650958e-014
vertex 1.40858243656128 46.8070248121089 1.24760229650958e-014
vertex 3.22722243656128 48.4058848121089 1.16389769650958e-014
endloop
endfacet
facet normal -2.44938686837777e-016 -2.44920676884857e-016 -1.0
outer loop
vertex 26.5720224365613 45.6514168121089 6.59580056509579e-015
vertex 28.3916224365613 47.6909808121089 5.65057873509579e-015
vertex 28.5166724365613 47.6093878121089 5.63993296509579e-015
endloop
endfacet
facet normal -2.44929379695902e-016 -2.44929578101035e-016 -1.0
outer loop
vertex 26.5720224365613 45.6514168121089 6.59580056509579e-015
vertex 10.1529114365613 50.0690428121089 9.53531596509579e-015
vertex 28.2480424365613 47.7320048121089 5.6756964850958e-015
endloop
endfacet
facet normal -2.44943973366348e-016 -2.44919104990379e-016 -1.0
outer loop
vertex 26.5188524365613 35.8288618121089 9.0146549650958e-015
vertex 26.7618624365613 36.2806198121089 8.8444869650958e-015
vertex 26.8853024365613 36.3333928121089 8.8013259650958e-015
endloop
endfacet
facet normal -2.44908473123017e-016 -2.44937766030421e-016 -1.0
outer loop
vertex 26.5188524365613 35.8288618121089 9.0146549650958e-015
vertex 26.5308524365613 35.9625778121089 8.97896396509579e-015
vertex 26.6569024365613 36.1969038121089 8.89069796509579e-015
endloop
endfacet
facet normal -2.44924969162003e-016 -2.44923161390228e-016 -1.0
outer loop
vertex 28.6832024365613 33.0949258121089 9.15416396509579e-015
vertex 26.5720224365613 34.6514168121089 9.29002396509579e-015
vertex 28.6526124365613 33.2410788121089 9.12585996509579e-015
endloop
endfacet
facet normal -2.44929224779834e-016 -2.44929293604926e-016 -1.0
outer loop
vertex 7.73144443656129 30.2166758121089 1.49908319650958e-014
vertex 10.1039614365613 33.9077788121089 1.35056739650958e-014
vertex 10.1529114365613 30.2337908121089 1.43935519650958e-014
endloop
endfacet
facet normal -2.44929049523266e-016 -2.44929571134156e-016 -1.0
outer loop
vertex 5.37685943656129 30.7821138121089 1.54290469650958e-014
vertex 6.59537443656129 34.7987308121089 1.41468089650958e-014
vertex 8.28375243656129 34.0936758121089 1.39059649650958e-014
endloop
endfacet
facet normal -2.44929462429676e-016 -2.44930200107227e-016 -1.0
outer loop
vertex 3.63934243656129 41.0662556121089 1.33357289650958e-014
vertex -0.834787563438711 42.5551298121089 1.40669049650958e-014
vertex 4.16920543656129 42.8175298121089 1.27770099650958e-014
endloop
endfacet
facet normal -2.44929809198069e-016 -2.44929779945597e-016 -1.0
outer loop
vertex 5.18352643656128 44.3403148121089 1.21555989650958e-014
vertex 3.22722243656128 48.4058848121089 1.16389769650958e-014
vertex 6.59537443656129 45.5041028121089 1.15247489650958e-014
endloop
endfacet
facet normal -2.4492960951782e-016 -2.44929405216921e-016 -1.0
outer loop
vertex 10.1039614365613 46.3950548121089 1.04471729650958e-014
vertex 7.73144443656128 50.0861578121089 1.01242129650958e-014
vertex 10.1529114365613 50.0690428121089 9.53531596509579e-015
endloop
endfacet
facet normal -2.44929334167806e-016 -2.44929408885518e-016 -1.0
outer loop
vertex 26.5720224365613 45.6514168121089 6.59580056509579e-015
vertex 10.1039614365613 46.3950548121089 1.04471729650958e-014
vertex 10.1529114365613 50.0690428121089 9.53531596509579e-015
endloop
endfacet
facet normal -2.44922277258809e-016 -2.44921203201908e-016 -1.0
outer loop
vertex 27.0183424365613 43.9514168121089 6.9028629650958e-015
vertex 26.8853024365613 43.9694408121089 6.93103296509579e-015
vertex 26.5780024365613 44.2145548121089 6.9462639650958e-015
endloop
endfacet
facet normal -2.44926007520403e-016 -2.44924569789947e-016 -1.0
outer loop
vertex 28.6692724365613 32.9462548121089 9.19398896509579e-015
vertex 26.5720224365613 34.6514168121089 9.29002396509579e-015
vertex 28.6832024365613 33.0949258121089 9.15416396509579e-015
endloop
endfacet
facet normal -2.4492979156784e-016 -2.44930275606367e-016 -1.0
outer loop
vertex 28.6526124365613 33.2410788121089 9.12585996509579e-015
vertex 26.5720224365613 34.6514168121089 9.29002396509579e-015
vertex 27.4952524365613 36.3514168121089 8.64751596509579e-015
endloop
endfacet
facet normal -2.44929477724745e-016 -2.44929195258396e-016 -1.0
outer loop
vertex 7.73144443656129 30.2166758121089 1.49908319650958e-014
vertex 5.37685943656129 30.7821138121089 1.54290469650958e-014
vertex 8.28375243656129 34.0936758121089 1.39059649650958e-014
endloop
endfacet
facet normal -2.44929844810673e-016 -2.44929737465713e-016 -1.0
outer loop
vertex 4.16920543656129 42.8175298121089 1.27770099650958e-014
vertex 0.0275924365612861 44.8178938121089 1.33014659650958e-014
vertex 1.40858243656128 46.8070248121089 1.24760229650958e-014
endloop
endfacet
facet normal -2.44929191345154e-016 -2.44929417542806e-016 -1.0
outer loop
vertex 8.28375243656129 46.2091578121089 1.09385279650958e-014
vertex 5.37685943656128 49.5207198121089 1.08394119650958e-014
vertex 7.73144443656128 50.0861578121089 1.01242129650958e-014
endloop
endfacet
facet normal -2.4492565425059e-016 -2.44933620805215e-016 -1.0
outer loop
vertex 26.5720224365613 45.6514168121089 6.59580056509579e-015
vertex 28.5166724365613 47.6093878121089 5.63993296509579e-015
vertex 28.6120624365613 47.4945048121089 5.6447082160958e-015
endloop
endfacet
facet normal -2.44923779761866e-016 -2.44923717518335e-016 -1.0
outer loop
vertex 27.0183424365613 43.9514168121089 6.9028629650958e-015
vertex 26.5780024365613 44.2145548121089 6.9462639650958e-015
vertex 26.5308524365613 44.3402558121089 6.92702496509579e-015
endloop
endfacet
facet normal -2.44975015351539e-016 -2.44987321073167e-016 -1.0
outer loop
vertex 26.8853024365613 43.9694408121089 6.93103296509579e-015
vertex 26.7618624365613 44.0222138121089 6.94834396509579e-015
vertex 26.5780024365613 44.2145548121089 6.9462639650958e-015
endloop
endfacet
facet normal -2.44929716910994e-016 -2.44929145270891e-016 -1.0
outer loop
vertex 26.5720224365613 45.6514168121089 6.59580056509579e-015
vertex 28.6692724365613 47.3565788121089 5.6644778450958e-015
vertex 28.6832024365613 47.2079078121089 5.6974798350958e-015
endloop
endfacet
facet normal -2.44929232373702e-016 -2.44929811640229e-016 -1.0
outer loop
vertex 26.5188524365613 35.8288618121089 9.0146549650958e-015
vertex 26.8853024365613 36.3333928121089 8.8013259650958e-015
vertex 27.0183424365613 36.3514168121089 8.76432596509579e-015
endloop
endfacet
facet normal -2.44929807945935e-016 -2.44930266711808e-016 -1.0
outer loop
vertex 26.5720224365613 34.6514168121089 9.29002396509579e-015
vertex 26.5188524365613 35.8288618121089 9.0146549650958e-015
vertex 27.4952524365613 36.3514168121089 8.64751596509579e-015
endloop
endfacet
facet normal -2.44929480614673e-016 -2.44929856663541e-016 -1.0
outer loop
vertex 3.22722243656129 31.8969488121089 1.56825029650958e-014
vertex 1.40858243656129 33.4958088121089 1.57363329650958e-014
vertex 5.18352643656129 35.9625188121089 1.42075669650958e-014
endloop
endfacet
facet normal -2.44929753224553e-016 -2.4492949758678e-016 -1.0
outer loop
vertex 8.28375243656129 46.2091578121089 1.09385279650958e-014
vertex 7.73144443656128 50.0861578121089 1.01242129650958e-014
vertex 10.1039614365613 46.3950548121089 1.04471729650958e-014
endloop
endfacet
facet normal -2.44929529737494e-016 -2.44928641023263e-016 -1.0
outer loop
vertex 27.4952524365613 43.9514168121089 6.78605296509579e-015
vertex 26.5720224365613 45.6514168121089 6.59580056509579e-015
vertex 28.6526124365613 47.0617548121089 5.7407704650958e-015
endloop
endfacet
facet normal -2.44929889650653e-016 -2.44928932811171e-016 -1.0
outer loop
vertex 26.5720224365613 45.6514168121089 6.59580056509579e-015
vertex 28.6120624365613 47.4945048121089 5.6447082160958e-015
vertex 28.6692724365613 47.3565788121089 5.6644778450958e-015
endloop
endfacet
facet normal -2.44931812640038e-016 -2.44931709749173e-016 -1.0
outer loop
vertex 28.6120624365613 32.8083288121089 9.24178396509579e-015
vertex 26.5720224365613 34.6514168121089 9.29002396509579e-015
vertex 28.6692724365613 32.9462548121089 9.19398896509579e-015
endloop
endfacet
facet normal -2.44928858177142e-016 -2.44929125087535e-016 -1.0
outer loop
vertex 6.59537443656129 45.5041028121089 1.15247489650958e-014
vertex 5.37685943656128 49.5207198121089 1.08394119650958e-014
vertex 8.28375243656129 46.2091578121089 1.09385279650958e-014
endloop
endfacet
facet normal -2.44922915883685e-016 -2.44922634468604e-016 -1.0
outer loop
vertex 27.0183424365613 43.9514168121089 6.9028629650958e-015
vertex 26.5308524365613 44.3402558121089 6.92702496509579e-015
vertex 26.5188524365613 44.4739718121089 6.89721396509579e-015
endloop
endfacet
facet normal -2.44923152010223e-016 -2.44938049715078e-016 -1.0
outer loop
vertex 26.5720224365613 45.6514168121089 6.59580056509579e-015
vertex 28.6832024365613 47.2079078121089 5.6974798350958e-015
vertex 28.6526124365613 47.0617548121089 5.7407704650958e-015
endloop
endfacet
facet normal -2.44929388851459e-016 -2.44929103841233e-016 -1.0
outer loop
vertex 10.1529114365613 30.2337908121089 1.43935519650958e-014
vertex 26.5720224365613 34.6514168121089 9.29002396509579e-015
vertex 28.2480424365613 32.5708288121089 9.38911396509579e-015
endloop
endfacet
facet normal -2.44930909395901e-016 -2.44929390283281e-016 -1.0
outer loop
vertex 27.0183424365613 43.9514168121089 6.9028629650958e-015
vertex 26.5720224365613 45.6514168121089 6.59580056509579e-015
vertex 27.4952524365613 43.9514168121089 6.78605296509579e-015
endloop
endfacet
facet normal -2.44929633112458e-016 -2.44929055206325e-016 -1.0
outer loop
vertex 27.0183424365613 43.9514168121089 6.9028629650958e-015
vertex 26.5188524365613 44.4739718121089 6.89721396509579e-015
vertex 26.5720224365613 45.6514168121089 6.59580056509579e-015
endloop
endfacet
facet normal -2.44930909395903e-016 -2.44928208639934e-016 -1.0
outer loop
vertex 26.5188524365613 35.8288618121089 9.0146549650958e-015
vertex 27.0183424365613 36.3514168121089 8.76432596509579e-015
vertex 27.4952524365613 36.3514168121089 8.64751596509579e-015
endloop
endfacet
facet normal -0.998981974896988 0.0451111275730686 1.48854804349856e-018
outer loop
vertex 26.5720224365613 45.6514168121089 4.00000000000001
vertex 26.5720224365613 45.6514168121089 6.59580056509579e-015
vertex 26.5188524365613 44.4739718121089 6.89721396509579e-015
endloop
endfacet
facet normal -0.998981974896988 0.0451111275730686 -1.48854804349856e-018
outer loop
vertex 26.5720224365613 45.6514168121089 4.00000000000001
vertex 26.5188524365613 44.4739718121089 6.89721396509579e-015
vertex 26.5188524365613 44.4739718121089 4.00000000000001
endloop
endfacet
facet normal -0.0451104098987813 -0.998982007304818 0.0
outer loop
vertex 26.5720224365613 45.6514168121089 6.59580056509579e-015
vertex 10.1039614365613 46.3950548121089 4.00000000000001
vertex 10.1039614365613 46.3950548121089 1.04471729650958e-014
endloop
endfacet
facet normal -0.0451104098987813 -0.998982007304818 3.11687326552183e-017
outer loop
vertex 26.5720224365613 45.6514168121089 4.00000000000001
vertex 10.1039614365613 46.3950548121089 4.00000000000001
vertex 26.5720224365613 45.6514168121089 6.59580056509579e-015
endloop
endfacet
facet normal -0.134251606464189 -0.990947277185716 -4.51785798066652e-019
outer loop
vertex 27.0183424365613 43.9514168121089 6.9028629650958e-015
vertex 26.8853024365613 43.9694408121089 4.00000000000001
vertex 26.8853024365613 43.9694408121089 6.93103296509579e-015
endloop
endfacet
facet normal -0.39310194480579 -0.919494894488221 0.0
outer loop
vertex 26.8853024365613 43.9694408121089 6.93103296509579e-015
vertex 26.7618624365613 44.0222138121089 4.00000000000001
vertex 26.7618624365613 44.0222138121089 6.94834396509579e-015
endloop
endfacet
facet normal -0.623549867023922 -0.781783578322319 2.29057960424697e-018
outer loop
vertex 26.7618624365613 44.0222138121089 6.94834396509579e-015
vertex 26.6569024365613 44.1059298121089 4.00000000000001
vertex 26.6569024365613 44.1059298121089 6.9535449650958e-015
endloop
endfacet
facet normal -0.809090243254168 -0.587684420646755 0.0
outer loop
vertex 26.5780024365613 44.2145548121089 4.00000000000001
vertex 26.5780024365613 44.2145548121089 6.9462639650958e-015
vertex 26.6569024365613 44.1059298121089 6.9535449650958e-015
endloop
endfacet
facet normal -0.936299481761213 -0.351202620226107 0.0
outer loop
vertex 26.5308524365613 44.3402558121089 4.00000000000001
vertex 26.5308524365613 44.3402558121089 6.92702496509579e-015
vertex 26.5780024365613 44.2145548121089 6.9462639650958e-015
endloop
endfacet
facet normal -0.995997308515323 -0.0893832279022933 -2.24754250866743e-019
outer loop
vertex 26.5188524365613 44.4739718121089 4.00000000000001
vertex 26.5188524365613 44.4739718121089 6.89721396509579e-015
vertex 26.5308524365613 44.3402558121089 6.92702496509579e-015
endloop
endfacet
facet normal -0.995997308515323 -0.0893832279022933 4.49508501733487e-019
outer loop
vertex 26.5188524365613 44.4739718121089 4.00000000000001
vertex 26.5308524365613 44.3402558121089 6.92702496509579e-015
vertex 26.5308524365613 44.3402558121089 4.00000000000001
endloop
endfacet
facet normal -0.936299481761213 -0.351202620226107 0.0
outer loop
vertex 26.5308524365613 44.3402558121089 4.00000000000001
vertex 26.5780024365613 44.2145548121089 6.9462639650958e-015
vertex 26.5780024365613 44.2145548121089 4.00000000000001
endloop
endfacet
facet normal -0.809090243254168 -0.587684420646755 -2.21331830049426e-018
outer loop
vertex 26.5780024365613 44.2145548121089 4.00000000000001
vertex 26.6569024365613 44.1059298121089 6.9535449650958e-015
vertex 26.6569024365613 44.1059298121089 4.00000000000001
endloop
endfacet
facet normal -0.623549867023922 -0.781783578322319 2.29057960424697e-018
outer loop
vertex 26.7618624365613 44.0222138121089 4.00000000000001
vertex 26.6569024365613 44.1059298121089 4.00000000000001
vertex 26.7618624365613 44.0222138121089 6.94834396509579e-015
endloop
endfacet
facet normal -0.39310194480579 -0.919494894488221 2.92169747253447e-018
outer loop
vertex 26.8853024365613 43.9694408121089 4.00000000000001
vertex 26.7618624365613 44.0222138121089 4.00000000000001
vertex 26.8853024365613 43.9694408121089 6.93103296509579e-015
endloop
endfacet
endsolid nori
